<svg xmlns="http://www.w3.org/2000/svg" width="1366" height="623.81" viewBox="0 0 1366 623.81"><g transform="translate(0.002 -0.005)"><path d="M965.643,691.076c-20.484-89.045-66.249-96.807-101.44-141.753-32.038-40.884-57.875-107.767,32.541-155.583,140.448-74.334,312.694,1.729,312.694,1.729s272.945,101.993,320.643,107.179,164.3,57.047,310.044-5.186,270.295-57.047,310.044-10.372S2099.82,668.6,2078.621,696.262s10.6,114.094,45.049,148.668,143.1,141.753-90.1,138.3-932.781,1.729-932.781,1.729-251.136-3.06-206.7-162.5C931.193,689.347,973.592,725.65,965.643,691.076Z" transform="translate(-834.52 -361.14)" fill="#f8f8ff"/><ellipse cx="52.999" cy="34.574" rx="52.999" ry="34.574" transform="translate(168.222 248.687)" fill="#bac5f4"/><ellipse cx="35.774" cy="23.337" rx="35.774" ry="23.337" transform="translate(96.673 302.277)" fill="#bac5f4"/><ellipse cx="19.875" cy="12.965" rx="19.875" ry="12.965" transform="translate(117.873 259.059)" fill="#bac5f4"/><ellipse cx="52.999" cy="34.574" rx="52.999" ry="34.574" transform="translate(1260 482.061)" fill="#bac5f4"/><ellipse cx="19.875" cy="12.965" rx="19.875" ry="12.965" transform="translate(19.825 94.833)" fill="#bac5f4"/><ellipse cx="94.073" cy="61.369" rx="94.073" ry="61.369" transform="translate(276.87 452.674)" fill="#e1e6fb"/><ellipse cx="63.599" cy="41.489" rx="63.599" ry="41.489" transform="translate(928.757 521.822)" fill="#e1e6fb"/><ellipse cx="34.449" cy="22.473" rx="34.449" ry="22.473" transform="translate(1201.701 326.479)" fill="#e1e6fb"/><ellipse cx="68.899" cy="44.946" rx="68.899" ry="44.946" transform="translate(910.207 101.748)" fill="#e1e6fb"/><ellipse cx="33.124" cy="21.609" rx="33.124" ry="21.609" transform="translate(313.969 4.941)" fill="#e1e6fb"/><ellipse cx="33.124" cy="21.609" rx="33.124" ry="21.609" transform="translate(207.971 435.387)" fill="#e1e6fb"/><ellipse cx="33.124" cy="21.609" rx="33.124" ry="21.609" transform="translate(1275.9 184.725)" fill="#bac5f4"/><ellipse cx="35.774" cy="23.337" rx="35.774" ry="23.337" transform="translate(1220.251 549.481)" fill="#bac5f4"/><ellipse cx="19.875" cy="12.965" rx="19.875" ry="12.965" transform="translate(1315.649 571.954)" fill="#bac5f4"/></g></svg>