<svg xmlns="http://www.w3.org/2000/svg" width="1368" height="625" viewBox="0 0 1368 625">
  <g id="bg-12" transform="translate(-0.004 0.003)">
    <path id="Path_129" data-name="Path 129" d="M583.912,533.459s-255.341-219.8,30.4-275.824,386.051,172.39,580.6,178.855,422.529-86.2,483.324-86.2,170.228,4.31,164.148,79.73-85.114,144.377-88.153,181.01S1824.14,746.792,1836.3,770.5s27.358,90.5-39.517,94.815c-34.228,2.155-229.5,29.091-493.964-25.859-200.124-41.578-513.357,30.168-586.388,30.168-23.651.041-46.733-5.141-66.039-14.826-53.652-27.055-139.024-95.009-63.44-235.14C626.469,546.389,583.912,533.459,583.912,533.459Z" transform="translate(-478.92 -248.8)" fill="#f8f8ff"/>
    <ellipse id="Ellipse_48" data-name="Ellipse 48" cx="77.514" cy="54.949" rx="77.514" ry="54.949" transform="translate(282.818 210.316)" fill="#fff"/>
    <ellipse id="Ellipse_49" data-name="Ellipse 49" cx="51.676" cy="36.633" rx="51.676" ry="36.633" transform="translate(214.423 238.33)" fill="#fff"/>
    <ellipse id="Ellipse_50" data-name="Ellipse 50" cx="50.156" cy="35.555" rx="50.156" ry="35.555" transform="translate(392.25 240.484)" fill="#fff"/>
    <ellipse id="Ellipse_51" data-name="Ellipse 51" cx="77.514" cy="54.949" rx="77.514" ry="54.949" transform="translate(989.566 378.397)" fill="#fff"/>
    <ellipse id="Ellipse_52" data-name="Ellipse 52" cx="51.676" cy="36.633" rx="51.676" ry="36.633" transform="translate(919.651 402.1)" fill="#fff"/>
    <ellipse id="Ellipse_53" data-name="Ellipse 53" cx="50.156" cy="35.555" rx="50.156" ry="35.555" transform="translate(1102.038 407.487)" fill="#fff"/>
    <ellipse id="Ellipse_54" data-name="Ellipse 54" cx="51.676" cy="36.633" rx="51.676" ry="36.633" transform="translate(179.466 469.979)" fill="#fff"/>
    <ellipse id="Ellipse_55" data-name="Ellipse 55" cx="36.477" cy="25.859" rx="36.477" ry="25.859" transform="translate(255.46 487.218)" fill="#fff"/>
    <path id="Path_130" data-name="Path 130" d="M712,644.062s34.958-31.246,71.435,3.232c0,0,34.957-36.633,56.236-5.387" transform="translate(-357.747 -219.335)" fill="none" stroke="#bac6f2" stroke-linecap="round" stroke-linejoin="round" stroke-width="5"/>
    <path id="Path_131" data-name="Path 131" d="M656,617.613s25.109-22.465,51.3,2.317c0,0,25.109-26.311,40.383-3.868" transform="translate(-386.861 -221.061)" fill="none" stroke="#bac6f2" stroke-linecap="round" stroke-linejoin="round" stroke-width="5"/>
    <path id="Path_132" data-name="Path 132" d="M1189,456.613s25.109-22.443,51.3,2.316c0,0,25.109-26.311,40.383-3.868" transform="translate(-109.761 -233.529)" fill="none" stroke="#bac6f2" stroke-linecap="round" stroke-linejoin="round" stroke-width="5"/>
    <path id="Path_133" data-name="Path 133" d="M549,354.613s25.109-22.465,51.3,2.316c0,0,25.109-26.311,40.383-3.868" transform="translate(-442.488 -241.428)" fill="none" stroke="#bac6f2" stroke-linecap="round" stroke-linejoin="round" stroke-width="5"/>
  </g>
</svg>
